<?xml version="1.0" standalone="no"?><!DOCTYPE svg PUBLIC "-//W3C//DTD SVG 1.1//EN" "http://www.w3.org/Graphics/SVG/1.1/DTD/svg11.dtd"><svg t="1628858623086" class="icon" viewBox="0 0 1026 1024" version="1.1" xmlns="http://www.w3.org/2000/svg" p-id="3187" xmlns:xlink="http://www.w3.org/1999/xlink" width="200.390625" height="200"><defs><style type="text/css"></style></defs><path d="M567.187673 404.694611c-64.383234-25.548902-136.942116 6.131737-162.491018 70.51497-25.548902 64.383234 5.10978 137.964072 69.493014 163.512974s136.942116-6.131737 162.491018-70.51497c25.548902-64.383234-5.10978-136.942116-69.493014-163.512974z m-10.219561 117.52495c-13.285429 32.702595-49.053892 48.031936-81.756487 35.768463-21.461078-8.175649-36.790419-27.592814-40.878244-50.075848-3.065868-22.483034 6.131737-45.988024 24.526946-60.29541 18.39521-14.307385 42.922156-17.373253 64.383234-8.175648 31.680639 14.307385 47.00998 51.097804 33.724551 82.778443z" p-id="3188" fill="#d81e06"></path><path d="M510.980088 470.0998c-16.351297-6.131737-34.746507 1.021956-41.9002 17.373254-6.131737 16.351297 1.021956 34.746507 17.373254 41.900199 16.351297 6.131737 34.746507-1.021956 41.900199-17.373253 7.153693-17.373253-1.021956-35.768463-17.373253-41.9002z" p-id="3189" fill="#d81e06"></path><path d="M512.002044 0C228.920208 0 0.002044 228.918164 0.002044 512c0 283.081836 228.918164 512 512 512s512-228.918164 512-512C1024.002044 228.918164 795.08388 0 512.002044 0z m0 984.143713C251.403242 984.143713 39.858331 772.598802 39.858331 512S251.403242 39.856287 512.002044 39.856287 984.145756 251.401198 984.145756 512 772.600846 984.143713 512.002044 984.143713z" p-id="3190" fill="#d81e06"></path><path d="M512.002044 60.295409C263.666715 60.295409 60.297453 263.664671 60.297453 512c0 248.335329 202.347305 451.704591 451.704591 451.704591S963.706635 760.335329 963.706635 512C963.706635 263.664671 760.337373 60.295409 512.002044 60.295409zM185.998052 374.035928c-3.065868 8.175649-13.285429 12.263473-21.461078 9.197605-4.087824-1.021956-7.153693-4.087824-9.197605-8.175649-2.043912-4.087824-2.043912-8.175649 0-12.263473 38.834331-92.998004 112.41517-166.578842 207.457086-206.43513 8.175649-4.087824 17.373253 0 21.461078 7.153693 2.043912 4.087824 2.043912 8.175649 1.021956 12.263473-1.021956 4.087824-4.087824 7.153693-8.175649 9.197605-86.866267 35.768463-156.359281 103.217565-191.105788 189.061876z m29.636726 34.746507c-4.087824-2.043912-7.153693-5.10978-9.197604-9.197605-2.043912-4.087824-2.043912-8.175649 0-12.263473 32.702595-80.734531 97.085828-146.139721 178.842315-179.864271 5.10978-3.065868 12.263473-2.043912 17.373254 2.043912 7.153693-3.065868 15.329341 0 19.417165 7.153693 4.087824 6.131737 3.065868 15.329341-3.065868 20.439121s-14.307385 6.131737-20.439122 1.021956l1.021956-1.021956c-73.580838 30.658683-131.832335 89.932136-162.491018 162.491018-3.065868 8.175649-12.263473 12.263473-21.461078 9.197605z m68.471058 19.417166c-4.087824-1.021956-7.153693-4.087824-9.197604-8.175649-2.043912-4.087824-2.043912-8.175649 0-12.263473 25.548902-61.317365 75.62475-111.393214 138.986027-136.942116 4.087824-2.043912 8.175649-2.043912 12.263474 0 4.087824 1.021956 7.153693 4.087824 9.197604 8.175649 3.065868 8.175649-1.021956 16.351297-8.175648 19.417166-55.185629 23.50499-99.129741 66.427146-121.612775 120.590818-4.087824 8.175649-13.285429 12.263473-21.461078 9.197605zM348.48907 596.822355c-29.636727-70.51497-14.307385-151.249501 37.812375-206.435129 53.141717-54.163673 133.876248-71.536926 204.391218-42.922156 96.063872 38.834331 143.073852 149.205589 104.239521 245.269461-27.592814 70.51497-96.063872 117.52495-171.688623 118.546906-76.646707 1.021956-145.117764-44.966068-174.754491-114.459082z m251.401197 149.205589c-3.065868-8.175649 0-16.351297 8.175649-20.439122 53.141717-23.50499 96.063872-66.427146 117.52495-120.590818 1.021956-4.087824 4.087824-7.153693 8.175649-8.175649 4.087824-2.043912 8.175649-2.043912 12.263473 0 8.175649 3.065868 12.263473 12.263473 9.197605 20.439122-24.526946 62.339321-72.558882 111.393214-133.876248 137.964072-10.219561 2.043912-18.39521-2.043912-21.461078-9.197605z m23.50499 37.812375c-3.065868-8.175649 0-17.373253 8.175649-20.439121 71.536926-29.636727 127.744511-85.844311 156.359282-155.337326 2.043912-4.087824 5.10978-7.153693 9.197604-8.175648 4.087824-2.043912 8.175649-2.043912 12.263473 0 4.087824 2.043912 7.153693 5.10978 8.175649 9.197604 2.043912 4.087824 1.021956 8.175649 0 12.263473-31.680639 77.668663-94.01996 138.986028-172.710579 171.688623-9.197605 2.043912-17.373253-2.043912-21.461078-9.197605z m44.966068 84.822356c-8.175649 3.065868-16.351297-1.021956-20.439121-8.175649-3.065868-8.175649 0-16.351297 8.175648-20.439122 83.800399-35.768463 150.227545-104.239521 183.952096-189.061876 1.021956-4.087824 4.087824-7.153693 8.175649-8.175649 4.087824-2.043912 8.175649-2.043912 12.263473 0 7.153693 4.087824 11.241517 12.263473 7.153692 20.439122-35.768463 91.976048-107.305389 165.556886-199.281437 205.413174z" p-id="3191" fill="#d81e06"></path></svg>