<?xml version="1.0" standalone="no"?><!DOCTYPE svg PUBLIC "-//W3C//DTD SVG 1.1//EN" "http://www.w3.org/Graphics/SVG/1.1/DTD/svg11.dtd"><svg t="1628858594740" class="icon" viewBox="0 0 1026 1024" version="1.1" xmlns="http://www.w3.org/2000/svg" p-id="1463" xmlns:xlink="http://www.w3.org/1999/xlink" width="200.390625" height="200"><defs><style type="text/css"></style></defs><path d="M815.552 889.28h-618.24L71.616 371.2 368.64 494.08l147.136-259.584 140.608 248.192 293.056-119.744-133.888 526.336z m-545.152-92.928h472.96l70.528-277.696-198.08 80.96-100.032-176.64-106.752 188.352-203.968-84.416 65.344 269.44z" fill="#d81e06" p-id="1464"></path><path d="M515.904 166.656m-84.672 0a84.672 84.672 0 1 0 169.344 0 84.672 84.672 0 1 0-169.344 0Z" fill="#d81e06" p-id="1465"></path><path d="M49.152 332.928m-49.152 0a49.152 49.152 0 1 0 98.304 0 49.152 49.152 0 1 0-98.304 0Z" fill="#d81e06" p-id="1466"></path><path d="M977.344 332.928m-49.152 0a49.152 49.152 0 1 0 98.304 0 49.152 49.152 0 1 0-98.304 0Z" fill="#d81e06" p-id="1467"></path></svg>